<svg t="1611820453393" class="icon" viewBox="0 0 1024 1024" version="1.1" xmlns="http://www.w3.org/2000/svg" p-id="2304" width="200" height="200"><path d="M512 938.666667C277.333333 938.666667 85.333333 746.666667 85.333333 512S277.333333 85.333333 512 85.333333s426.666667 192 426.666667 426.666667-192 426.666667-426.666667 426.666667z m0-768c-187.733333 0-341.333333 153.6-341.333333 341.333333s153.6 341.333333 341.333333 341.333333 341.333333-153.6 341.333333-341.333333-153.6-341.333333-341.333333-341.333333z" p-id="2305" fill="#d81e06"></path><path d="M512 746.666667c-25.6 0-42.666667-17.066667-42.666667-42.666667s17.066667-42.666667 42.666667-42.666667 42.666667 17.066667 42.666667 42.666667-17.066667 42.666667-42.666667 42.666667z m-42.666667-426.666667c0-25.6 17.066667-42.666667 42.666667-42.666667s42.666667 21.333333 42.666667 42.666667v256c0 25.6-17.066667 42.666667-42.666667 42.666667s-42.666667-21.333333-42.666667-42.666667v-256z" p-id="2306" fill="#d81e06"></path></svg>
